# Blender v2.79 (sub 0) OBJ File: 'ice_item.blend'
# www.blender.org
mtllib ice_item.mtl
o Cube_Cube.001
v -0.226624 -0.608078 0.226624
v -0.326316 0.752928 0.326316
v -0.226624 -0.608078 -0.226624
v -0.326316 0.752928 -0.326316
v 0.226624 -0.608078 0.226624
v 0.326316 0.752928 0.326316
v 0.226624 -0.608078 -0.226624
v 0.326316 0.752928 -0.326316
v -0.000000 1.460761 0.000000
v 0.207357 -0.653431 0.158798
v 0.342468 0.293206 0.228654
v 0.207357 -0.653431 -0.158798
v 0.342468 0.293206 -0.228654
v 0.517649 -0.721154 0.158798
v 0.789257 0.195691 0.228654
v 0.517649 -0.721154 -0.158798
v 0.789257 0.195691 -0.228654
v 0.671625 0.729028 -0.000000
v -0.234701 -0.600905 0.143283
v -0.356611 0.253244 0.206314
v -0.234701 -0.600905 -0.143283
v -0.356611 0.253244 -0.206314
v -0.514677 -0.662012 0.143283
v -0.759749 0.165256 0.206314
v -0.514677 -0.662012 -0.143283
v -0.759749 0.165256 -0.206314
v -0.653610 0.646486 -0.000000
v -0.179715 -0.607269 0.117738
v -0.263386 0.312567 0.374944
v 0.136121 -0.611904 0.150800
v 0.191387 0.305894 0.422550
v -0.212333 -0.717174 0.413921
v -0.310352 0.154314 0.801418
v 0.103504 -0.721809 0.446983
v 0.144422 0.147641 0.849024
v -0.070600 0.695391 0.783415
v -0.117818 -0.510582 -0.116837
v -0.167684 0.268754 -0.489066
v 0.167161 -0.501767 -0.088033
v 0.242657 0.281447 -0.447590
v -0.088388 -0.650495 -0.365190
v -0.125307 0.067294 -0.846668
v 0.196592 -0.641679 -0.336385
v 0.285034 0.079987 -0.805193
v 0.068706 0.564692 -0.865832
v -0.612373 -0.778918 0.612373
v -0.612372 -0.778918 -0.612372
v 0.000000 0.221082 0.000000
v 0.612373 -0.778918 -0.612372
v 0.612372 -0.778918 0.612373
v -0.000000 -1.241451 0.000000
vn -0.9973 -0.0731 0.0000
vn 0.0000 -0.0731 -0.9973
vn 0.9973 -0.0731 0.0000
vn 0.0000 -0.0731 0.9973
vn -0.9900 0.1413 0.0000
vn 0.0000 0.4187 -0.9081
vn -0.9081 0.4187 0.0000
vn 0.0000 0.4187 0.9081
vn 0.9081 0.4187 0.0000
vn -0.0156 -0.0714 -0.9973
vn 0.9588 -0.2840 0.0000
vn -0.0156 -0.0714 0.9973
vn 0.0893 0.4090 -0.9081
vn -0.7980 0.6027 0.0000
vn 0.0893 0.4090 0.9081
vn 0.9765 0.2154 0.0000
vn 0.9900 0.1413 0.0000
vn 0.0156 -0.0714 -0.9973
vn -0.9588 -0.2840 0.0000
vn 0.0156 -0.0714 0.9973
vn -0.0893 0.4090 -0.9081
vn 0.7980 0.6027 0.0000
vn -0.0893 0.4090 0.9081
vn -0.9765 0.2154 0.0000
vn 0.1041 0.2766 -0.9553
vn 0.9934 -0.0831 0.0786
vn -0.1008 -0.4137 0.9048
vn -0.9902 -0.0540 -0.1291
vn 0.8937 0.3795 0.2392
vn 0.0839 0.7070 -0.7022
vn -0.9125 0.4060 0.0502
vn -0.1027 0.0785 0.9916
vn -0.1041 0.4232 0.9000
vn 0.9902 -0.0330 0.1359
vn 0.1008 -0.5506 -0.8286
vn -0.9934 -0.0944 -0.0645
vn 0.9125 0.3931 -0.1133
vn -0.0839 0.8085 0.5824
vn -0.8937 0.3372 -0.2959
vn 0.1027 -0.0782 -0.9916
vn -0.6027 -0.7980 -0.0000
vn -0.8528 0.5222 -0.0000
vn -0.0000 -0.7980 -0.6027
vn -0.0000 0.5222 -0.8528
vn 0.6027 -0.7980 0.0000
vn 0.8528 0.5222 0.0000
vn -0.0000 -0.7980 0.6027
vn 0.0000 0.5222 0.8528
usemtl None
s off
f 1//1 2//1 4//1 3//1
f 3//2 4//2 8//2 7//2
f 7//3 8//3 6//3 5//3
f 5//4 6//4 2//4 1//4
f 10//5 11//5 13//5 12//5
f 8//6 4//6 9//6
f 4//7 2//7 9//7
f 2//8 6//8 9//8
f 6//9 8//9 9//9
f 12//10 13//10 17//10 16//10
f 16//11 17//11 15//11 14//11
f 14//12 15//12 11//12 10//12
f 17//13 13//13 18//13
f 13//14 11//14 18//14
f 11//15 15//15 18//15
f 15//16 17//16 18//16
f 19//17 21//17 22//17 20//17
f 21//18 25//18 26//18 22//18
f 25//19 23//19 24//19 26//19
f 23//20 19//20 20//20 24//20
f 26//21 27//21 22//21
f 22//22 27//22 20//22
f 20//23 27//23 24//23
f 24//24 27//24 26//24
f 28//25 29//25 31//25 30//25
f 30//26 31//26 35//26 34//26
f 34//27 35//27 33//27 32//27
f 32//28 33//28 29//28 28//28
f 35//29 31//29 36//29
f 31//30 29//30 36//30
f 29//31 33//31 36//31
f 33//32 35//32 36//32
f 37//33 39//33 40//33 38//33
f 39//34 43//34 44//34 40//34
f 43//35 41//35 42//35 44//35
f 41//36 37//36 38//36 42//36
f 44//37 45//37 40//37
f 40//38 45//38 38//38
f 38//39 45//39 42//39
f 42//40 45//40 44//40
f 51//41 46//41 47//41
f 46//42 48//42 47//42
f 51//43 47//43 49//43
f 47//44 48//44 49//44
f 51//45 49//45 50//45
f 49//46 48//46 50//46
f 51//47 50//47 46//47
f 50//48 48//48 46//48
