# Blender v2.79 (sub 0) OBJ File: 'untitled.blend'
# www.blender.org
mtllib Platform.mtl
o Cube
v -2.000000 -0.182192 2.000000
v -2.000000 0.182192 -2.000000
v -2.000000 -0.182192 -2.000000
v 2.000000 -0.182192 -2.000000
v 2.000001 0.182192 -1.999999
v -2.000001 0.182192 1.999999
v 2.000000 -0.182192 2.000000
v 1.999999 0.182192 2.000001
vt 0.853116 0.853115
vt 0.853115 0.000085
vt 0.000085 0.000086
vt 0.000085 0.853115
vt 0.853116 0.853115
vt 0.000085 0.853115
vt 0.000085 0.000086
vt 0.853115 0.000085
vt 0.969970 0.893520
vt 0.969969 0.980966
vt 0.010029 0.980966
vt 0.010030 0.893519
vt 0.969970 0.893520
vt 0.969969 0.980966
vt 0.010029 0.980966
vt 0.010030 0.893519
vt 0.969970 0.893520
vt 0.969969 0.980966
vt 0.010029 0.980966
vt 0.010030 0.893519
vt 0.969970 0.893520
vt 0.969969 0.980966
vt 0.010029 0.980966
vt 0.010030 0.893519
vn 0.0000 -1.0000 0.0000
vn 0.0000 1.0000 0.0000
vn 1.0000 -0.0000 0.0000
vn -0.0000 -0.0000 1.0000
vn -1.0000 -0.0000 -0.0000
vn 0.0000 0.0000 -1.0000
usemtl Material
s off
f 4/1/1 7/2/1 1/3/1 3/4/1
f 5/5/2 2/6/2 6/7/2 8/8/2
f 4/9/3 5/10/3 8/11/3 7/12/3
f 7/13/4 8/14/4 6/15/4 1/16/4
f 1/17/5 6/18/5 2/19/5 3/20/5
f 3/21/6 2/22/6 5/23/6 4/24/6
